<svg width="298" height="158" viewBox="0 0 298 158" fill="none" xmlns="http://www.w3.org/2000/svg">
<path d="M1 5.66455C1 3.45541 2.79086 1.66455 5 1.66455L293 1.66455C295.209 1.66455 297 3.45541 297 5.66455V152.665C297 154.874 295.209 156.665 293 156.665H5C2.79086 156.665 1 154.874 1 152.665L1 5.66455Z" fill="#1F1C1D" fill-opacity="0.9"/>
<path d="M13.5262 0.179806C18.5423 0.140726 25.1175 0.182511 30.1147 0.239864C31.6808 0.257652 30.8878 0.337164 31.9688 0.353023C34.0832 0.383938 36.0531 0.344942 38.1426 0.38177C38.835 0.394364 37.9731 0.520312 38.6992 0.530634C42.6781 0.586296 46.4423 0.554216 50.4729 0.580988C70.3268 0.713079 89.8427 0.760358 109.939 0.817743C116.566 0.836556 124.621 0.950859 131.466 0.900873C132.265 0.894924 131.788 0.784374 131.94 0.775263C134.324 0.635775 133.532 0.858953 135.088 0.888605C141.267 1.00568 148.138 1.01586 154.084 0.973199C156.614 0.954724 154.078 0.735143 156.625 0.858392C156.802 0.866719 156.16 0.984116 156.854 0.996636C158.427 1.0248 161.412 1.00381 162.631 1.01312C164.981 1.03164 165.37 1.03045 167.593 1.03179C170.631 1.03464 174.245 1.093 177.506 1.0664C178.201 1.06037 177.28 0.940028 178.39 0.919549C179.501 0.899103 182.439 0.909308 183.43 0.937677C184.421 0.96606 183.999 1.06065 184.174 1.08233C185.617 1.26532 189.016 1.01188 189.453 1.00561C197.428 0.89881 204.266 1.04319 211.751 1.04278C217.434 1.04216 223.51 0.994495 228.917 1.00103C235.359 1.00928 240.818 1.0745 247.076 1.06329C247.736 1.06224 246.963 0.920745 247.769 0.919183C256.339 0.902718 264.85 0.918142 273.383 1.01367C274.238 1.02337 273.136 1.1476 273.99 1.16473C279.225 1.26682 287.508 1.51209 290.617 0.971185C291.382 0.975745 292.183 0.980337 293 0.985833C295.52 0.914108 297.746 3.33272 297.604 5.66455C297.587 6.49464 297.567 7.28761 297.541 8.02019C297.471 10.0655 297.336 8.07897 297.394 10.5914C297.406 11.1581 297.525 10.4212 297.535 11.271C297.579 14.8487 297.54 18.7576 297.601 22.2969C297.614 23.0168 297.72 22.8203 297.74 23.0243C297.894 24.7386 297.638 27.5924 297.62 28.2146C297.481 32.952 297.536 36.4117 297.532 40.8249C297.531 41.8491 297.674 40.6385 297.678 41.624C297.699 46.7351 297.687 52.0297 297.623 57.0344C297.609 58.1476 297.487 57.1239 297.474 57.6559C297.418 60.0015 297.647 60.5214 297.598 62.771C297.588 63.2453 297.484 62.9781 297.472 63.0647C297.293 64.4186 297.547 65.595 297.553 65.9433C297.629 70.3485 297.364 73.1643 297.401 77.42C297.406 77.9291 297.538 76.781 297.543 78.2122C297.58 87.7465 297.543 97.8302 297.438 107.268C297.422 108.735 297.323 107.688 297.311 107.78C297.12 109.285 297.376 110.259 297.385 110.737C297.454 114.511 297.24 118.037 297.544 120.602C297.474 131.321 297.527 142.007 297.488 152.665C297.537 155.058 295.37 157.192 293 157.117C289.863 157.092 286.728 157.056 283.595 157.002C283.394 156.999 283.755 156.873 283.353 156.867C278.511 156.797 279.441 156.992 276.237 157.231C275.43 157.291 272.974 157.002 272.757 156.981C271.966 156.903 272.787 156.716 272.522 156.701C270.328 156.583 270.686 157.201 267.727 157.201C267.635 157.2 268.023 157.087 267.775 157.075C267.004 157.04 266.239 157.085 265.484 157.046C263.756 156.955 263.141 156.655 260.502 156.829C260.168 156.852 260.678 157.203 258.036 157.186C256.984 157.179 252.322 157.185 251.016 157.163C249.711 157.14 250.607 157.027 250.514 157.022C246.998 156.873 248.331 156.811 246.57 156.589C244.809 156.369 245.297 156.895 244.579 156.953C243.86 157.012 241.282 156.889 240.649 156.846C240.016 156.803 240.805 156.731 240.243 156.707C236.51 156.548 238.604 156.968 237.374 157.051C234.475 157.249 232.216 156.859 229.562 156.821C228.843 156.81 229.429 156.899 228.79 156.907C226.257 156.939 224.733 156.818 221.851 156.929C221.38 156.947 219.05 157.182 217.542 157.01C217.328 156.985 217.935 156.888 216.856 156.866C215.243 156.833 212.337 156.812 210.603 156.844C209.323 156.869 210.79 157.029 209.179 156.979C208.463 156.957 209.79 156.863 208.445 156.829C207.107 156.795 203.686 156.799 202.384 156.803C201.085 156.806 201.796 156.927 201.691 156.936C201.055 156.982 198.562 157.041 198.341 157.041C187.225 157.056 176.974 156.851 166.151 156.919C165.302 156.924 165.868 157.052 165.738 157.054C162.83 157.108 165.123 156.767 163.092 156.653C163.385 156.913 162.186 156.866 160.138 156.894C159.151 156.908 159.688 157.009 159.598 157.019C158.135 157.172 157.115 156.975 156.853 156.934C155.884 156.786 154.829 156.961 154.169 156.862C153.51 156.764 155.027 156.617 153.063 156.619C152.512 156.712 153.97 156.955 152.479 156.995C146.852 157.144 136.348 156.953 131.823 156.933C127.308 156.913 125.85 156.931 123.218 156.897C118.466 156.836 120.207 157.017 117.256 157.099C114.297 157.182 115.736 156.738 115.31 156.643C114.892 156.547 114.436 156.645 113.917 156.593C113.399 156.54 114.52 156.476 113.302 156.456C112.084 156.436 108.752 156.606 108.32 156.706C107.407 156.917 108.908 157.139 105.684 157.061C105.499 157.056 106.1 156.94 105.39 156.928C99.7507 156.838 93.8918 156.832 88.259 156.753C87.4846 156.742 88.1771 156.612 87.7263 156.604C83.0314 156.521 84.7097 156.74 82.1365 156.983C82.7143 156.66 81.2913 156.462 77.7282 156.46C75.5863 156.458 75.955 156.6 74.5696 156.699C74.154 156.729 72.6383 156.632 72.3637 156.699C71.4581 156.916 72.8857 157.159 69.212 157.062C69.0509 157.058 69.564 156.939 69.0071 156.932C65.4072 156.885 64.9764 157.112 61.0851 157.139C58.0349 157.161 52.6102 157.022 49.1371 157C49.2102 156.636 45.9297 156.719 44.599 156.97C42.3451 156.96 39.9106 156.974 37.7321 156.939C36.9824 156.928 37.475 156.822 37.3804 156.811C35.9306 156.632 34.9508 156.876 34.4643 156.886C29.1915 156.979 24.8954 156.794 19.8632 156.975C19.6846 156.981 19.3952 157.234 18.05 157.049C17.963 157.037 19.6249 156.922 17.2578 156.913C14.8902 156.904 10.427 156.768 7.1401 156.886C6.70391 156.901 5.9018 156.97 5 157.002C4.1957 157.038 3.29735 156.772 2.68071 156.279C2.50203 156.133 2.74506 156.215 2.50579 155.993C1.80594 155.264 1.19214 154.893 1.05116 153.651C1.03341 153.379 1.02515 153.046 1.06533 152.665C1.20478 151.322 1.27665 149.268 1.16045 146.695C1.1561 146.59 0.953638 145.805 0.95684 144.763C0.962124 143.098 1.0043 140.736 1.00298 138.999C1.00228 138.167 0.876559 138.699 0.874259 138.555C0.803811 132.961 0.915888 128.98 0.96453 122.987C0.973695 121.889 0.802259 118.732 0.937797 116.605C1.08617 114.27 1.70337 116.67 1.55632 111.302C1.49751 109.137 0.714479 106.396 1.12017 102.506C1.01964 94.9607 1.22727 87.9828 1.08373 80.4165C1.07737 80.0762 0.858834 79.0003 0.861808 78.2004C0.866647 77.0128 0.968788 76.361 0.975516 75.513C1.00628 71.9599 0.918894 68.7084 0.932487 65.2827C0.937425 63.982 1.04304 64.4368 1.04894 62.8856C1.05475 61.3352 0.915673 60.3015 0.98284 58.2006C1.03404 56.614 1.3183 55.0276 1.35143 52.9216C1.07104 52.8413 1.07682 51.3948 1.0028 48.824C0.988438 48.3297 0.890847 48.8597 0.87902 48.6259C0.828721 47.6745 0.909603 46.7941 0.85485 45.8907C0.8417 45.671 0.745945 45.6606 0.729789 45.481C0.588772 43.9533 0.804164 41.4366 0.841667 41.0043C0.984094 39.3477 0.859554 38.5735 0.915641 37.3028C0.971721 36.0342 1.04183 37.9311 1.07586 36.4492C1.14625 33.3775 1.13078 29.4307 1.13518 26.311C1.13635 25.0663 1.00853 25.9155 1.00573 25.7374C0.97331 23.1634 1.10927 20.5605 0.854667 19.1334C1.51298 17.3488 0.790814 17.5813 0.922599 13.9021C0.933258 13.6123 1.24457 13.2436 1.29027 14.3563C1.33593 15.4689 1.23862 17.156 1.30987 18.6997C1.32659 19.0653 1.6183 21.1594 1.63598 21.4451C1.77408 23.6832 1.30887 24.0003 1.28332 24.1188C1.00757 25.4616 1.32184 28.0206 1.34356 28.6945C1.44306 31.7773 1.37764 34.3965 1.44866 36.975C1.49456 38.6615 1.79929 38.8264 1.78997 40.1507C1.75914 44.5528 1.33403 46.0894 1.70263 50.2376C1.78124 51.1271 2.1143 50.2432 1.85241 53.4303C1.8359 53.6306 1.59631 55.9969 1.74785 57.364C1.76696 57.5358 1.86403 57.5303 1.87218 57.7567C1.92493 59.2743 1.8476 60.2864 1.88463 61.9397C1.92167 63.5928 1.97688 65.5806 1.94396 67.4681C1.92427 68.6055 1.74342 70.065 1.69915 70.6096C1.5716 72.1471 1.78072 73.7956 1.62627 74.7481C1.47104 75.7086 1.2353 73.8308 1.135 76.3496C1.38719 76.4429 1.64603 76.6572 1.89965 76.8072C1.89077 82.3271 1.80922 87.7583 1.82036 93.2966C1.822 93.9832 1.95757 93.2811 1.96282 94.0171C1.98436 97.1227 1.88771 99.8352 1.9262 103.056C1.95651 105.549 2.10005 108.282 2.13622 110.889C1.84765 112.481 1.94561 116.349 1.91924 119.159C1.91013 120.144 1.83305 120.078 1.80791 120.778C1.71492 123.419 1.96993 122.181 2.01006 122.905C2.18133 126.011 1.60414 126.277 1.6184 129.939C1.61896 130.133 1.92663 132.505 1.94579 132.832C2.07073 134.907 1.8387 133.175 1.81597 134.474C1.77442 136.846 1.70095 138.494 1.79107 141.276C1.81776 142.088 2.00953 144.034 1.86119 145.609C1.84177 145.817 1.74007 145.702 1.73412 145.869C1.63484 148.889 1.95439 148.968 2.06261 150.694C2.09948 151.282 2.09817 151.979 2.0779 152.665C2.01097 153.652 2.53503 154.546 2.70246 154.766C3.03907 155.215 2.87512 155.089 2.61811 154.82C2.36012 154.55 2.13238 154.081 2.11733 154.055C1.65271 153.418 2.21475 155.077 3.41368 155.644C3.41255 155.827 3.8559 156.119 4.26145 156.194C4.6662 156.274 4.95727 156.197 4.64594 156.037C4.57178 156.032 3.61711 155.815 3.41368 155.644C3.85361 155.742 4.38749 155.839 5 155.804C6.18706 155.752 7.6255 155.806 9.15134 155.98C10.3317 156.115 9.21586 156.272 12.8016 156.214C14.429 156.188 13.8001 155.973 15.2363 155.914C18.5172 155.78 22.7808 155.981 26.1632 155.949C27.3909 155.938 26.195 155.82 27.034 155.808C29.2606 155.776 31.2242 155.864 33.4604 155.819C33.6629 155.814 33.168 155.691 33.8633 155.689C39.135 155.675 43.7253 155.754 49.2293 155.756C51.8887 155.757 56.6433 155.689 59.3982 155.703C64.1729 155.726 70.0468 155.906 74.1257 155.862C76.7861 155.834 76.2025 155.71 77.3423 155.626C79.542 155.463 83.4357 155.755 83.96 155.801C83.9759 155.802 81.6867 155.831 82.9082 155.895C83.6185 156.027 83.9342 155.801 83.96 155.801C84.3043 155.83 88.8773 155.858 89.7854 155.834C90.2788 155.821 90.0028 155.704 90.26 155.7C96.375 155.595 102.501 155.565 108.703 155.62C108.812 155.622 108.647 155.753 108.904 155.757C112.495 155.815 114.794 155.655 117.755 155.56C120.716 155.465 123.064 155.497 124.816 155.722C127.051 155.693 130.256 155.793 132.1 155.853C133.944 155.913 134.202 155.658 134.364 155.653C139.425 155.492 142.351 155.638 147.603 155.661C150.099 155.672 155.051 155.635 157.754 155.607C159.891 155.585 161.178 155.644 163.146 155.606C163.413 155.601 163.143 155.487 163.225 155.483C165.422 155.347 164.366 155.625 164.819 155.674C166.464 155.855 167.48 155.951 170.293 155.866C170.942 155.847 172.832 155.447 174.015 155.423C175.553 155.394 174.973 155.537 176.583 155.502C176.721 155.499 176.692 155.411 177.686 155.415C182.299 155.432 187.329 155.483 192.123 155.475C192.778 155.474 191.938 155.333 192.885 155.33C197.324 155.313 202.191 155.318 206.516 155.384C207.581 155.401 206.913 155.499 207.144 155.528C208.563 155.704 210.575 155.448 210.907 155.443C218.827 155.32 224.888 155.552 232.959 155.442C233.398 155.435 236.781 155.16 238.289 155.396C238.393 155.412 239.886 155.653 241.206 155.488C241.288 155.478 240.357 155.353 241.981 155.366C243.604 155.379 246.217 155.296 248.448 155.432C249.155 155.475 250.824 155.716 252.932 155.524C253.069 155.511 256.322 155.077 257.483 155.376C257.672 155.425 257.474 155.742 259.99 155.58C260.47 155.548 259.598 155.478 260.864 155.433C262.804 155.366 265.374 155.45 267.758 155.309C268.174 155.284 269.944 155.07 271.364 155.233C271.586 155.258 271.164 155.364 271.914 155.376C275.48 155.432 279.213 155.362 282.834 155.435C284.116 155.46 283.461 155.631 284.797 155.677C286.134 155.723 288.828 155.767 290.227 155.689C291.626 155.611 290.097 155.338 292.193 155.317C292.462 155.314 292.731 155.311 293 155.309C294.409 155.324 295.655 154.057 295.623 152.665C295.631 145.945 295.723 139.25 295.741 132.516C295.744 131.166 295.647 132.285 295.645 130.296C295.638 122.964 295.546 110.304 295.753 103.942C295.919 98.8438 296.045 105.259 296.113 101.364C296.145 99.4838 295.828 97.4501 295.818 96.9963C295.717 92.5632 295.857 89.4823 295.814 85.4923C295.805 84.6683 295.677 85.4764 295.671 84.7752C295.649 82.3799 295.706 79.8625 295.695 77.5736C295.691 76.5468 295.593 76.736 295.6 75.7912C295.617 73.5304 295.658 71.5312 295.75 69.3272C295.758 69.1263 295.88 70.4808 295.885 68.8082C295.892 66.101 295.982 62.7407 295.889 59.6261C295.861 58.702 295.637 58.6657 295.791 56.6793C295.824 56.2626 296.093 56.7942 295.86 54.4802C295.822 54.091 295.508 50.2039 295.71 48.2962C295.763 47.793 295.983 46.5085 295.949 45.3972C295.943 45.2465 295.823 45.8502 295.811 44.9294C295.772 41.6839 295.785 38.2825 295.747 34.9483C295.737 34.0579 295.613 35.3841 295.601 34.0571C295.57 30.4078 295.601 25.8517 295.64 22.2833C295.655 20.9677 295.758 21.877 295.769 21.7813C295.952 20.2419 295.705 19.3317 295.691 18.8208C295.605 15.6431 295.721 13.2234 295.69 10.2944C295.682 9.48601 295.565 10.0592 295.554 9.89826C295.452 8.22952 295.663 9.47261 295.686 8.41629C295.706 7.52402 295.719 6.60087 295.727 5.66455C295.793 4.20069 294.407 2.87176 293 2.93612C292.928 2.93647 292.856 2.93682 292.785 2.93718C291.686 2.94287 292.921 3.07904 291.935 3.08257C286.096 3.10603 280.026 3.093 274.329 3.01793C273.256 3.00355 273.931 2.89869 273.707 2.87474C272.166 2.70719 269.907 2.93574 269.388 2.95751C267.024 3.05691 266.107 2.96419 264.02 2.98149C253.825 3.06767 241.237 3.00625 231.614 2.96831C219.075 2.91948 209.344 2.81973 197.386 2.84563C196.626 2.84714 197.392 2.98664 196.737 2.98973C188.278 3.02336 179.951 2.96885 171.475 3.00914C170.78 3.0122 171.782 3.14444 170.666 3.1538C168.376 3.17391 165.476 3.16672 163.16 3.1245C162.031 3.10415 163.546 2.99068 162.409 2.97252C159.763 2.92998 156.926 2.92056 154.207 2.94176C153.05 2.95107 154.796 3.08632 153.292 3.08788C143.049 3.10129 132.99 3.12459 122.639 2.94945C121.929 2.93742 121.306 2.66255 119.798 2.71526C119.684 2.79154 119.69 2.88128 119.641 2.96282C104.729 3.00674 89.9705 2.91145 75.0176 2.89672C74.3871 2.89613 75.4767 3.04177 74.2561 3.04137C67.1917 3.03922 60.3317 3.07956 53.1057 2.9348C52.3887 2.92064 52.7565 2.66442 50.6437 2.70317C50.271 2.71025 47.0888 2.74442 46.2661 2.80004C46.1543 2.80843 46.7349 2.92802 45.7095 2.93151C39.7505 2.94967 33.5058 2.92236 27.5571 2.84929C26.597 2.83727 27.6194 2.70991 26.9356 2.70024C22.085 2.63264 16.809 2.72945 12.174 2.61382C9.0715 2.53596 10.2201 2.31581 8.57151 2.09911C8.33833 2.06854 6.41718 2.06369 6.31783 1.93761C6.06277 1.62057 6.99331 1.27341 6.61149 0.935479C6.53082 0.862691 3.9579 0.941089 5.48123 0.765192C5.58765 0.75342 7.45303 0.695041 7.91248 0.63537C8.23236 0.594115 7.65592 0.465892 8.30858 0.413081C8.96118 0.36032 9.67831 0.467804 10.7603 0.405757C11.8418 0.342942 11.3663 0.197073 13.5262 0.179806ZM140.404 156.123C142.112 156.245 142.364 155.797 140.517 155.904C140.428 155.91 140.316 156.117 140.404 156.123ZM1.47081 87.7273C1.27293 89.9599 1.5639 91.4877 1.71672 89.9127C1.86939 88.3379 1.5308 87.0471 1.47081 87.7273ZM1.32635 64.5758C1.17032 67.1851 1.80652 67.596 1.67791 64.8012C1.67064 64.6387 1.3354 64.4233 1.32635 64.5758ZM16.217 2.0374C16.1934 2.03145 14.8124 2.02564 14.7794 2.03155C14.044 2.17403 16.8055 2.18555 16.217 2.0374ZM1.16906 41.6019C1.083 42.4165 1.18234 44.7619 1.28936 43.7497C1.37545 42.935 1.27611 40.5874 1.16906 41.6019ZM229.49 156.602C229.517 156.608 230.507 156.614 230.487 156.577C230.42 156.455 229.042 156.489 229.49 156.602ZM2.26409 2.97251C1.48185 3.75535 1.12541 4.7814 1.09663 5.66455C0.953335 9.29704 0.629511 10.5533 0.670448 5.66455C0.670794 5.61974 0.671846 5.57462 0.673641 5.52921C0.704038 5.09862 0.702457 5.29944 0.725649 5.66455C0.778756 6.29864 0.855746 7.48426 0.886527 6.54349C0.896423 6.23974 0.900847 5.94767 0.901191 5.66455C0.916052 3.49967 2.36708 1.44968 4.94797 1.48456C5.20816 1.51001 4.45248 1.53434 3.71775 1.8786C2.96558 2.19948 2.36117 2.86125 2.25772 2.98004C2.25984 2.97753 2.26196 2.97502 2.26409 2.97251ZM141.388 156.662C141.422 156.668 142.793 156.673 142.825 156.667C143.568 156.525 140.807 156.514 141.388 156.662ZM287.263 156.879C287.338 156.892 290.519 156.904 290.623 156.892C292.282 156.659 285.852 156.634 287.263 156.879ZM49.0825 156.99C47.587 157.133 45.798 157.15 44.6059 156.97C46.0921 156.98 47.5881 156.981 49.0825 156.99Z" fill="#FF313B"/>
</svg>
